<svg width="385.500048828125px" height="122.02138671875px" xmlns="http://www.w3.org/2000/svg" viewBox="57.249975585937506 13.989306640625003 385.500048828125 122.02138671875" style="background: rgb(255, 255, 255);" preserveAspectRatio="xMidYMid"><defs><linearGradient id="editing-gradient-gradient" x1="0" x2="1" y1="0.5" y2="0.5" gradientUnits="objectBoundingBox"><stop offset="0" stop-color="#e7008a"></stop><stop offset="1" stop-color="#ff003a"></stop></linearGradient></defs><g><g transform="translate(117.32500913739204, 102.73718643188477)"><path d="M26.11-42.69L26.11-42.69L26.11-42.69Q41.79-42.69 41.79-31.62L41.79-31.62L41.79-31.62Q41.79-25.54 37.89-21.89L37.89-21.89L37.89-21.89Q34.05-18.24 27.33-18.24L27.33-18.24L27.33-18.24Q24.19-18.24 21.76-20.03L21.76-20.03L21.76-20.03Q20.61-20.80 19.84-21.82L19.84-21.82L19.84-21.82Q24.51-21.82 26.98-24.67L26.98-24.67L26.98-24.67Q29.44-27.52 29.44-33.09L29.44-33.09L29.44-33.09Q29.44-38.66 23.94-38.66L23.94-38.66L22.40-38.66L22.40-38.66Q22.02-38.66 21.70-38.59L21.70-38.59L14.34 0L0.45 0L8.32-41.92L8.32-41.92Q15.17-42.56 19.14-42.62L19.14-42.62L19.14-42.62Q23.10-42.69 26.11-42.69ZM68.03-10.82L68.03-10.82L68.03-10.82Q69.63-9.73 69.63-7.33L69.63-7.33L69.63-7.33Q69.63-4.93 68.42-3.39L68.42-3.39L68.42-3.39Q67.20-1.86 65.22-0.83L65.22-0.83L65.22-0.83Q61.12 1.28 56.70 1.28L56.70 1.28L56.70 1.28Q52.29 1.28 49.70 0.32L49.70 0.32L49.70 0.32Q47.10-0.64 45.38-2.43L45.38-2.43L45.38-2.43Q41.98-5.82 41.98-12.03L41.98-12.03L41.98-12.03Q41.98-21.70 47.23-27.58L47.23-27.58L47.23-27.58Q52.86-33.92 62.66-33.92L62.66-33.92L62.66-33.92Q68.74-33.92 71.74-31.36L71.74-31.36L71.74-31.36Q73.98-29.44 73.98-26.30L73.98-26.30L73.98-26.30Q73.98-15.04 54.53-15.04L54.53-15.04L54.53-15.04Q54.27-13.38 54.27-11.97L54.27-11.97L54.27-11.97Q54.27-9.02 55.58-7.90L55.58-7.90L55.58-7.90Q56.90-6.78 59.33-6.78L59.33-6.78L59.33-6.78Q61.76-6.78 64.35-7.90L64.35-7.90L64.35-7.90Q66.94-9.02 68.03-10.82ZM54.98-17.79L54.98-17.79L54.98-17.79Q59.52-17.79 62.14-20.61L62.14-20.61L62.14-20.61Q64.77-23.30 64.77-27.58L64.77-27.58L64.77-27.58Q64.77-29.06 64.22-29.86L64.22-29.86L64.22-29.86Q63.68-30.66 62.59-30.66L62.59-30.66L62.59-30.66Q61.50-30.66 60.58-30.24L60.58-30.24L60.58-30.24Q59.65-29.82 58.69-28.42L58.69-28.42L58.69-28.42Q56.32-25.22 54.98-17.79ZM77.18-6.40L77.18-6.40L77.18-6.40Q77.18-8.13 78.08-12.48L78.08-12.48L81.47-29.76L77.70-29.76L77.95-31.68L77.95-31.68Q85.63-33.98 93.06-39.62L93.06-39.62L96.13-39.62L94.59-32.64L99.58-32.64L99.01-29.76L94.08-29.76L90.82-12.48L90.82-12.48Q89.98-8.51 89.98-7.17L89.98-7.17L89.98-7.17Q89.98-4.10 92.67-3.46L92.67-3.46L92.67-3.46Q92.03-1.28 89.73 0L89.73 0L89.73 0Q87.42 1.28 84.16 1.28L84.16 1.28L84.16 1.28Q80.90 1.28 79.04-0.77L79.04-0.77L79.04-0.77Q77.18-2.82 77.18-6.40ZM103.55-26.75L103.55-26.75L103.55-26.75Q105.73-29.82 109.02-31.87L109.02-31.87L109.02-31.87Q112.32-33.92 116.35-33.92L116.35-33.92L116.35-33.92Q120.38-33.92 122.30-32.64L122.30-32.64L134.85-33.92L130.50-9.34L130.50-9.34Q128.26 3.20 123.52 8.13L123.52 8.13L123.52 8.13Q118.98 12.80 110.14 12.80L110.14 12.80L110.14 12.80Q103.42 12.80 99.58 10.69L99.58 10.69L99.58 10.69Q95.74 8.58 95.74 5.06L95.74 5.06L95.74 5.06Q95.74 2.43 97.73 0.93L97.73 0.93L97.73 0.93Q99.71-0.58 102.78-0.58L102.78-0.58L102.78-0.58Q105.47-0.58 107.52 0.64L107.52 0.64L107.52 0.64Q108.74 1.28 109.31 2.18L109.31 2.18L109.31 2.18Q107.84 3.46 107.84 5.57L107.84 5.57L107.84 5.57Q107.84 8.32 110.40 8.32L110.40 8.32L110.40 8.32Q114.69 8.32 117.12-1.79L117.12-1.79L117.12-1.79Q117.82-4.54 118.40-7.30L118.40-7.30L118.40-7.30Q115.52-3.78 108.99-3.78L108.99-3.78L108.99-3.78Q104.45-3.78 101.82-5.95L101.82-5.95L101.82-5.95Q99.20-8.13 99.20-13.25L99.20-13.25L99.20-13.25Q99.20-16.45 100.29-20.06L100.29-20.06L100.29-20.06Q101.38-23.68 103.55-26.75ZM111.87-13.06L111.87-13.06L111.87-13.06Q111.87-8.70 114.11-8.70L114.11-8.70L114.11-8.70Q115.65-8.70 117.12-10.37L117.12-10.37L117.12-10.37Q118.27-11.71 118.72-13.70L118.72-13.70L121.98-30.14L121.98-30.14Q121.66-30.21 121.34-30.34L121.34-30.34L121.34-30.34Q120.70-30.59 119.87-30.59L119.87-30.59L119.87-30.59Q115.97-30.59 113.66-24.19L113.66-24.19L113.66-24.19Q111.87-19.20 111.87-13.06ZM157.38-17.98L157.38-17.98L157.38-17.98Q159.68-22.08 159.68-26.24L159.68-26.24L159.68-26.24Q159.68-28.99 157.70-28.99L157.70-28.99L157.70-28.99Q156.16-28.99 154.56-26.37L154.56-26.37L154.56-26.37Q152.90-23.74 152.38-20.35L152.38-20.35L149.06 0L135.81 1.28L142.34-32.64L152.90-33.92L151.74-27.46L151.74-27.46Q154.88-33.92 161.92-33.92L161.92-33.92L161.92-33.92Q165.63-33.92 167.65-32L167.65-32L167.65-32Q169.66-30.08 169.66-26.14L169.66-26.14L169.66-26.14Q169.66-22.21 167.07-19.71L167.07-19.71L167.07-19.71Q164.48-17.22 160.06-17.22L160.06-17.22L160.06-17.22Q158.14-17.22 157.38-17.98ZM173.47-1.92L173.47-1.92L173.47-1.92Q171.97-3.58 171.30-6.21L171.30-6.21L171.30-6.21Q170.62-8.83 170.62-13.12L170.62-13.12L170.62-13.12Q170.62-17.41 172.10-21.31L172.10-21.31L172.10-21.31Q173.57-25.22 176.26-28.03L176.26-28.03L176.26-28.03Q181.76-33.92 190.85-33.92L190.85-33.92L190.85-33.92Q194.11-33.92 196.48-32.83L196.48-32.83L207.42-33.92L202.69-8.96L202.69-8.96Q202.50-8.19 202.50-6.78L202.50-6.78L202.50-6.78Q202.50-5.38 203.36-4.48L203.36-4.48L203.36-4.48Q204.22-3.58 205.50-3.46L205.50-3.46L205.50-3.46Q204.86-1.28 202.53 0L202.53 0L202.53 0Q200.19 1.28 197.57 1.28L197.57 1.28L197.57 1.28Q194.94 1.28 193.18 0.29L193.18 0.29L193.18 0.29Q191.42-0.70 190.91-2.37L190.91-2.37L190.91-2.37Q189.89-0.77 187.71 0.26L187.71 0.26L187.71 0.26Q185.54 1.28 182.62 1.28L182.62 1.28L182.62 1.28Q179.71 1.28 177.34 0.51L177.34 0.51L177.34 0.51Q174.98-0.26 173.47-1.92ZM186.98-27.90L186.98-27.90L186.98-27.90Q186.24-26.75 185.60-24.80L185.60-24.80L185.60-24.80Q184.96-22.85 183.90-17.63L183.90-17.63L183.90-17.63Q182.85-12.42 182.85-8.70L182.85-8.70L182.85-8.70Q182.85-4.99 183.42-3.90L183.42-3.90L183.42-3.90Q184-2.82 185.02-2.82L185.02-2.82L185.02-2.82Q187.07-2.82 188.58-4.77L188.58-4.77L188.58-4.77Q190.08-6.72 190.66-10.18L190.66-10.18L194.05-28.93L194.05-28.93Q192.70-30.08 191.14-30.08L191.14-30.08L191.14-30.08Q189.57-30.08 188.64-29.57L188.64-29.57L188.64-29.57Q187.71-29.06 186.98-27.90ZM256.96 1.28L256.96 1.28L256.96 1.28Q249.22 1.28 249.22-4.74L249.22-4.74L249.22-4.74Q249.22-7.36 250.34-12.45L250.34-12.45L250.34-12.45Q251.46-17.54 251.84-19.58L251.84-19.58L251.84-19.58Q252.74-24.26 252.74-25.73L252.74-25.73L252.74-25.73Q252.74-28.99 250.30-28.99L250.30-28.99L250.30-28.99Q248.70-28.99 247.17-26.78L247.17-26.78L247.17-26.78Q245.63-24.58 244.93-20.16L244.93-20.16L240.96 0L228.48 1.28L231.94-16.13L231.94-16.13Q232.51-19.01 233.02-22.27L233.02-22.27L233.02-22.27Q233.54-25.54 233.54-26.05L233.54-26.05L233.54-26.05Q233.54-28.99 231.36-28.99L231.36-28.99L231.36-28.99Q229.89-28.99 228.29-26.82L228.29-26.82L228.29-26.82Q226.69-24.64 225.79-20.16L225.79-20.16L221.89 0L209.28 1.28L216-32.64L226.43-33.92L225.34-27.46L225.34-27.46Q227.01-30.91 230.08-32.42L230.08-32.42L230.08-32.42Q233.15-33.92 237.95-33.92L237.95-33.92L237.95-33.92Q240.70-33.92 242.50-32.58L242.50-32.58L242.50-32.58Q244.29-31.23 244.86-29.06L244.86-29.06L244.86-29.06Q245.95-31.30 248.74-32.61L248.74-32.61L248.74-32.61Q251.52-33.92 254.94-33.92L254.94-33.92L254.94-33.92Q258.37-33.92 260.06-33.18L260.06-33.18L260.06-33.18Q261.76-32.45 262.78-31.23L262.78-31.23L262.78-31.23Q264.51-28.99 264.51-24.90L264.51-24.90L264.51-24.90Q264.51-20.86 262.78-12.48L262.78-12.48L262.78-12.48Q261.89-8.38 261.89-6.88L261.89-6.88L261.89-6.88Q261.89-5.38 262.75-4.48L262.75-4.48L262.75-4.48Q263.62-3.58 264.90-3.46L264.90-3.46L264.90-3.46Q264.26-1.28 262.05 0L262.05 0L262.05 0Q259.84 1.28 256.96 1.28Z" fill="url(#editing-gradient-gradient)"></path></g></g><style>text {
  font-size: 64px;
  font-family: Arial Black;
  dominant-baseline: central;
  text-anchor: middle;
}</style></svg>